<svg width="440.6669999999999" height="140.651" xmlns="http://www.w3.org/2000/svg" xml:space="preserve" enable-background="new 0 0 440.667 140.651" version="1.1">

 <g>
  <title>Layer 1</title>
  <g id="svg_1">
   <path id="svg_2" d="m88.524,55.021c-3.296,-1.529 -7.295,-2.676 -11.772,-3.438c-4.472,-0.702 -9.889,-1.083 -16.717,-1.083c-4.943,0 -9.65,0.255 -14.129,0.828c-4.472,0.572 -8.239,1.337 -11.063,2.418c-3.065,1.081 -4.477,2.226 -4.477,3.565c0,2.86 8.24,5.154 24.727,6.872l12.71,1.336c9.185,1.019 16.96,2.1 23.315,3.31c6.354,1.208 11.535,2.736 15.067,4.581c3.769,1.846 5.653,4.008 5.653,6.555c0,2.162 -1.412,4.135 -4.477,5.98c-2.824,1.846 -6.828,3.438 -12.009,4.774c-5.181,1.337 -11.299,2.419 -18.128,3.118c-7.064,0.699 -14.367,1.082 -22.132,1.082c-9.422,0 -18.134,-0.573 -25.902,-1.72c-7.774,-1.208 -14.366,-2.798 -19.31,-4.771c-4.943,-2.038 -8.239,-4.329 -9.651,-6.936l22.369,-1.274c0,1.719 1.412,3.246 4.471,4.646c3.059,1.398 7.301,2.481 12.717,3.309c5.18,0.764 10.827,1.146 17.189,1.146c6.355,0 12.008,-0.445 16.953,-1.273c4.944,-0.828 8.713,-1.973 11.772,-3.436c2.586,-1.465 4.004,-2.992 4.004,-4.646c0,-2.354 -2.829,-4.2 -8.246,-5.536c-5.41,-1.335 -12.947,-2.546 -22.369,-3.564l-12.239,-1.4c-7.774,-0.891 -14.366,-1.845 -19.783,-2.926c-5.653,-1.019 -10.125,-2.291 -13.657,-3.818c-3.533,-1.527 -5.18,-3.309 -5.18,-5.408c0,-1.847 1.412,-3.565 4.241,-5.156c3.06,-1.526 6.829,-2.862 11.536,-3.946c4.944,-1.082 10.361,-1.845 16.717,-2.418c6.354,-0.57 12.953,-0.891 19.782,-0.891c6.592,0 12.711,0.257 18.6,0.827c5.654,0.573 10.833,1.4 15.541,2.482c4.472,1.083 8.477,2.42 11.536,3.946l-17.659,2.865" fill="#ED1C24"/>
   <path id="svg_3" d="m216.62,44.9c-12.481,0 -24.253,0.637 -35.553,1.909c-11.306,1.335 -21.194,3.119 -29.907,5.472c-8.712,2.292 -15.305,4.964 -20.248,8.018c-4.944,3.057 -7.301,6.238 -7.301,9.611c0,4.646 4.235,8.847 12.481,12.726c8.241,3.818 19.54,6.811 33.905,8.973c14.366,2.229 29.906,3.311 46.623,3.311c12.481,0 24.49,-0.639 35.79,-1.91c11.535,-1.208 21.43,-2.992 29.906,-5.281c8.713,-2.229 15.306,-4.898 20.014,-8.02c4.941,-3.054 7.3,-6.299 7.3,-9.798c0,-3.373 -2.358,-6.554 -7.3,-9.673c-4.944,-3.053 -11.536,-5.726 -20.014,-8.017c-8.477,-2.228 -18.371,-4.011 -29.906,-5.347s-23.308,-1.974 -35.79,-1.974m0,44.419c-12.481,0 -24.253,-0.827 -35.086,-2.547c-11.064,-1.719 -19.776,-4.073 -26.139,-7.064c-6.355,-2.99 -9.652,-6.235 -9.652,-9.798c0,-2.61 1.648,-5.154 5.181,-7.508c3.296,-2.291 8.239,-4.329 14.602,-6.174c6.355,-1.78 14.123,-3.18 22.834,-4.198c8.714,-1.02 18.136,-1.529 28.26,-1.529c10.126,0 19.776,0.509 28.489,1.529c8.713,1.019 16.25,2.418 22.604,4.198c6.363,1.845 11.309,3.884 14.604,6.238c3.532,2.352 5.181,4.835 5.181,7.445c0,3.563 -3.297,6.808 -9.657,9.798c-6.357,2.991 -15.069,5.346 -26.132,7.064c-10.834,1.719 -22.607,2.546 -35.089,2.546z" fill="#ED1C24"/>
   <path id="svg_4" d="m363.191,0l23.781,6.109l24.019,-6.109l13.893,2.927l-37.911,9.227l-37.437,-9.227l13.655,-2.927m54.163,26.029c-3.298,-1.528 -7.302,-2.675 -11.773,-3.438c-4.479,-0.7 -9.896,-1.082 -16.723,-1.082c-4.943,0 -9.652,0.255 -14.122,0.827c-4.479,0.573 -8.248,1.337 -11.071,2.418c-3.059,1.083 -4.47,2.227 -4.47,3.564c0,2.862 8.24,5.155 24.72,6.872l12.718,1.336c9.179,1.018 16.952,2.099 23.309,3.31c6.36,1.208 11.542,2.736 15.075,4.582c3.76,1.844 5.644,4.008 5.644,6.554c0,2.163 -1.409,4.136 -4.47,5.982c-2.829,1.845 -6.828,3.436 -12.008,4.772c-5.181,1.336 -11.308,2.418 -18.136,3.118c-7.064,0.701 -14.358,1.082 -22.132,1.082c-9.416,0 -18.128,-0.573 -25.9,-1.719c-7.769,-1.209 -14.361,-2.799 -19.311,-4.772c-4.945,-2.037 -8.241,-4.327 -9.652,-6.936l22.369,-1.274c0,1.719 1.412,3.246 4.471,4.646c3.066,1.398 7.301,2.482 12.719,3.309c5.181,0.765 10.833,1.146 17.188,1.146s12.008,-0.445 16.952,-1.272c4.944,-0.829 8.713,-1.973 11.773,-3.437c2.592,-1.464 4.005,-2.992 4.005,-4.646c0,-2.354 -2.824,-4.201 -8.24,-5.537c-5.417,-1.334 -12.954,-2.546 -22.369,-3.564l-12.244,-1.4c-7.775,-0.89 -14.367,-1.845 -19.784,-2.926c-5.646,-1.018 -10.122,-2.291 -13.656,-3.818c-3.531,-1.528 -5.18,-3.31 -5.18,-5.409c0,-1.845 1.418,-3.564 4.241,-5.154c3.06,-1.527 6.828,-2.864 11.536,-3.947c4.942,-1.081 10.359,-1.845 16.723,-2.417c6.354,-0.572 12.947,-0.891 19.776,-0.891c6.591,0 12.717,0.255 18.602,0.826c5.651,0.575 10.83,1.401 15.54,2.482c4.478,1.083 8.476,2.42 11.543,3.947l-17.663,2.866z" fill="#ED1C24"/>
   <path id="svg_5" d="m329.051,73.687c0.218,1.207 0.437,1.744 0.437,2.35c0.218,0.4 0.436,1.677 0.874,3.959c0.217,1.811 0.656,3.086 0.656,3.824l-0.439,24.093c0,9.395 19.44,14.697 53.516,14.697c38.007,0 55.263,-4.632 55.263,-14.697l0,-24.094c0,-2.818 0.437,-6.509 1.311,-10.133l-16.819,0c0.874,2.35 1.093,3.488 1.529,6.309c0.219,1.811 0.219,3.086 0.219,3.824l0,24.294c0,2.483 -0.874,4.43 -3.059,5.637c-5.679,3.154 -17.255,4.899 -32.765,4.899c-18.565,0 -29.268,-1.947 -33.419,-5.839c-1.31,-1.477 -1.967,-3.287 -1.967,-5.838l0.219,-23.153c0,-3.623 0.438,-6.441 1.312,-10.133l-26.868,0" fill="#ED1C24"/>
  </g>
 </g>
</svg>